<svg 
 xmlns="http://www.w3.org/2000/svg"
 xmlns:xlink="http://www.w3.org/1999/xlink"
 width="167px" height="180px">
<path fill-rule="evenodd"  opacity="0.051" fill="currentColor"
 d="M144.243,68.445 L144.243,61.524 C144.243,44.961 138.462,29.571 127.980,18.150 C117.237,6.428 102.466,-0.001 86.352,-0.001 L80.720,-0.001 C64.606,-0.001 49.834,6.428 39.092,18.150 C28.610,29.571 22.828,44.961 22.828,61.524 L22.828,68.445 C10.109,69.314 0.000,80.054 0.000,93.176 L0.000,103.991 C0.000,117.642 10.967,128.759 24.432,128.759 L38.196,128.759 C40.658,128.759 42.672,126.717 42.672,124.221 L42.672,72.907 C42.672,70.411 40.658,68.369 38.196,68.369 L31.781,68.369 L31.781,61.524 C31.781,31.613 52.818,9.075 80.682,9.075 L86.315,9.075 C114.216,9.075 135.217,31.613 135.217,61.524 L135.217,68.369 L128.801,68.369 C126.339,68.369 124.325,70.411 124.325,72.907 L124.325,124.183 C124.325,126.680 126.339,128.721 128.801,128.721 L135.067,128.721 C133.240,152.394 117.163,157.877 109.703,159.125 C107.651,152.734 101.720,148.121 94.745,148.121 L83.555,148.121 C74.901,148.121 67.851,155.268 67.851,164.041 C67.851,172.814 74.901,179.999 83.555,179.999 L94.782,179.999 C102.019,179.999 108.099,175.007 109.926,168.276 C113.582,167.747 119.364,166.423 125.108,163.020 C133.202,158.218 142.789,148.424 144.057,128.684 C156.851,127.890 166.997,117.112 166.997,103.953 L166.997,93.138 C167.034,80.054 156.963,69.276 144.243,68.445 ZM33.795,119.646 L24.507,119.646 C15.965,119.646 9.027,112.612 9.027,103.953 L9.027,93.138 C9.027,84.478 15.965,77.445 24.507,77.445 L33.795,77.445 L33.795,119.646 ZM94.782,170.924 L83.555,170.924 C79.824,170.924 76.803,167.861 76.803,164.078 C76.803,160.297 79.824,157.234 83.555,157.234 L94.782,157.234 C98.512,157.234 101.534,160.297 101.534,164.078 C101.534,167.861 98.512,170.924 94.782,170.924 ZM158.082,103.953 C158.082,112.612 151.144,119.646 142.602,119.646 L133.314,119.646 L133.314,77.445 L142.602,77.445 C151.144,77.445 158.082,84.478 158.082,93.138 L158.082,103.953 Z"/>
</svg>