<svg 
 xmlns="http://www.w3.org/2000/svg"
 xmlns:xlink="http://www.w3.org/1999/xlink"
 width="56px" height="60px">
<path fill-rule="evenodd"  fill="currentColor"
 d="M48.369,22.814 L48.369,20.507 C48.369,14.986 46.430,9.856 42.915,6.049 C39.313,2.142 34.360,-0.001 28.956,-0.001 L27.068,-0.001 C21.664,-0.001 16.711,2.142 13.108,6.049 C9.594,9.856 7.655,14.986 7.655,20.507 L7.655,22.814 C3.390,23.104 -0.000,26.684 -0.000,31.058 L-0.000,34.663 C-0.000,39.213 3.677,42.919 8.193,42.919 L12.808,42.919 C13.634,42.919 14.309,42.239 14.309,41.406 L14.309,24.301 C14.309,23.469 13.634,22.789 12.808,22.789 L10.657,22.789 L10.657,20.507 C10.657,10.537 17.712,3.024 27.055,3.024 L28.944,3.024 C38.300,3.024 45.342,10.537 45.342,20.507 L45.342,22.789 L43.191,22.789 C42.365,22.789 41.690,23.469 41.690,24.301 L41.690,41.394 C41.690,42.225 42.365,42.907 43.191,42.907 L45.292,42.907 C44.679,50.798 39.288,52.625 36.787,53.041 C36.099,50.911 34.110,49.373 31.771,49.373 L28.018,49.373 C25.116,49.373 22.752,51.755 22.752,54.680 C22.752,57.604 25.116,59.999 28.018,59.999 L31.783,59.999 C34.210,59.999 36.249,58.335 36.861,56.092 C38.087,55.915 40.026,55.474 41.952,54.339 C44.667,52.738 47.881,49.474 48.307,42.894 C52.597,42.629 55.999,39.037 55.999,34.650 L55.999,31.045 C56.011,26.684 52.634,23.092 48.369,22.814 ZM11.332,39.882 L8.218,39.882 C5.354,39.882 3.027,37.537 3.027,34.650 L3.027,31.045 C3.027,28.159 5.354,25.814 8.218,25.814 L11.332,25.814 L11.332,39.882 ZM31.783,56.974 L28.018,56.974 C26.767,56.974 25.754,55.953 25.754,54.692 C25.754,53.432 26.767,52.411 28.018,52.411 L31.783,52.411 C33.034,52.411 34.047,53.432 34.047,54.692 C34.047,55.953 33.034,56.974 31.783,56.974 ZM53.010,34.650 C53.010,37.537 50.683,39.882 47.819,39.882 L44.704,39.882 L44.704,25.814 L47.819,25.814 C50.683,25.814 53.010,28.159 53.010,31.045 L53.010,34.650 Z"/>
</svg>