<svg 
 xmlns="http://www.w3.org/2000/svg"
 xmlns:xlink="http://www.w3.org/1999/xlink"
 width="35px" height="30px">
<path fill-rule="evenodd"  fill="currentColor"
 d="M30.530,29.999 L15.512,29.999 C13.044,29.999 11.042,28.217 11.042,26.033 C11.042,26.004 11.042,25.982 11.042,25.961 L12.764,6.567 C12.800,6.165 13.145,5.849 13.554,5.849 L17.127,5.849 C17.156,2.615 19.789,-0.001 23.018,-0.001 C26.246,-0.001 28.880,2.615 28.908,5.849 L32.482,5.849 C32.890,5.849 33.235,6.157 33.271,6.567 L34.993,25.961 C35.000,25.982 35.000,26.004 35.000,26.033 C35.000,28.224 32.991,29.999 30.530,29.999 ZM23.025,1.580 C20.657,1.580 18.734,3.492 18.705,5.849 L27.337,5.849 C27.308,3.492 25.385,1.580 23.025,1.580 ZM31.757,7.429 L28.908,7.429 L28.908,9.987 C28.908,10.426 28.557,10.778 28.119,10.778 C27.681,10.778 27.330,10.426 27.330,9.987 L27.330,7.429 L18.698,7.429 L18.698,9.987 C18.698,10.426 18.347,10.778 17.909,10.778 C17.471,10.778 17.120,10.426 17.120,9.987 L17.120,7.429 L14.271,7.429 L12.621,26.062 C12.642,27.362 13.934,28.411 15.512,28.411 L30.530,28.411 C32.108,28.411 33.400,27.362 33.407,26.062 L31.757,7.429 ZM9.206,21.944 L3.796,21.944 C3.358,21.944 3.006,21.592 3.006,21.154 C3.006,20.715 3.358,20.363 3.796,20.363 L9.206,20.363 C9.643,20.363 9.995,20.715 9.995,21.154 C9.995,21.592 9.643,21.944 9.206,21.944 ZM9.206,18.093 L0.789,18.093 C0.352,18.093 -0.000,17.740 -0.000,17.302 C-0.000,16.864 0.352,16.512 0.789,16.512 L9.206,16.512 C9.643,16.512 9.995,16.864 9.995,17.302 C9.995,17.740 9.643,18.093 9.206,18.093 ZM9.206,14.241 L3.796,14.241 C3.358,14.241 3.006,13.890 3.006,13.451 C3.006,13.012 3.358,12.661 3.796,12.661 L9.206,12.661 C9.643,12.661 9.995,13.012 9.995,13.451 C9.995,13.890 9.643,14.241 9.206,14.241 Z"/>
</svg>