<svg 
 xmlns="http://www.w3.org/2000/svg"
 xmlns:xlink="http://www.w3.org/1999/xlink"
 width="86px" height="60px">
<path fill-rule="evenodd"  fill="currentColor"
 d="M84.014,30.799 L78.133,30.799 C77.064,30.799 76.147,29.885 76.147,28.817 C76.147,27.750 77.064,26.835 78.133,26.835 L84.014,26.835 C85.084,26.835 86.000,27.674 86.000,28.817 C86.000,29.885 85.084,30.799 84.014,30.799 ZM73.322,15.323 C72.558,16.086 71.336,16.086 70.572,15.323 C69.808,14.561 69.808,13.340 70.572,12.579 L74.773,8.385 C75.536,7.623 76.758,7.623 77.522,8.385 C78.286,9.148 78.286,10.368 77.522,11.130 L73.322,15.323 ZM70.343,34.459 C69.808,35.832 68.968,37.127 67.975,38.271 C68.663,39.948 68.968,41.854 68.968,43.760 C68.968,48.258 67.135,52.298 64.233,55.196 C61.330,58.169 57.282,59.923 52.700,59.999 L14.282,59.999 C10.311,59.999 6.797,58.398 4.201,55.806 C1.604,53.214 -0.000,49.630 -0.000,45.742 C-0.000,41.778 1.604,38.271 4.201,35.679 C6.415,33.468 9.318,32.019 12.602,31.638 C13.671,27.293 16.039,23.480 19.247,20.736 C22.836,17.610 27.572,15.781 32.613,15.781 C36.890,15.781 40.938,17.077 44.298,19.440 C44.604,19.669 44.986,19.974 45.291,20.202 C46.437,18.677 47.888,17.381 49.492,16.390 C51.707,15.094 54.304,14.332 56.977,14.332 C60.948,14.332 64.615,16.009 67.211,18.601 C69.885,21.193 71.488,24.853 71.488,28.817 C71.488,30.724 71.107,32.706 70.343,34.459 ZM47.506,32.858 C45.979,33.544 44.527,34.611 43.382,35.907 C42.694,36.670 41.472,36.746 40.632,36.060 C39.868,35.374 39.792,34.154 40.479,33.316 C42.007,31.562 43.916,30.189 45.979,29.274 C46.360,29.046 46.742,28.894 47.201,28.741 C45.979,26.378 44.146,24.319 42.007,22.871 C39.257,20.965 35.973,19.897 32.536,19.897 C28.412,19.897 24.593,21.345 21.691,23.862 C18.788,26.378 16.726,29.885 16.115,33.925 C16.039,34.459 15.733,34.916 15.275,35.221 C15.046,35.374 14.664,35.450 14.359,35.450 C11.533,35.450 8.936,36.670 7.103,38.500 C5.193,40.329 4.048,42.921 4.048,45.742 C4.048,48.563 5.270,51.155 7.103,52.985 C9.012,54.891 11.533,56.034 14.435,56.339 L52.547,56.339 C55.984,56.339 59.039,54.967 61.254,52.756 C63.469,50.545 64.844,47.496 64.844,44.065 C64.844,40.634 63.469,37.585 61.254,35.374 C59.039,33.163 55.908,31.790 52.547,31.790 C50.790,31.790 49.034,32.172 47.506,32.858 ZM64.615,21.269 C62.705,19.364 60.032,18.220 57.130,18.220 C55.144,18.220 53.234,18.754 51.630,19.744 C50.332,20.584 49.186,21.651 48.346,22.947 C49.568,24.395 50.638,25.920 51.401,27.674 C51.860,27.597 52.394,27.597 52.853,27.597 C57.359,27.597 61.407,29.428 64.309,32.324 C64.920,32.934 65.531,33.620 66.066,34.383 C66.371,33.849 66.600,33.392 66.829,32.858 C67.364,31.562 67.670,30.189 67.670,28.741 C67.670,25.844 66.524,23.176 64.615,21.269 ZM57.130,9.834 C56.060,9.834 55.144,8.919 55.144,7.851 L55.144,1.905 C55.144,0.838 56.060,-0.001 57.130,-0.001 C58.199,-0.001 59.115,0.914 59.115,1.981 L59.115,7.851 C59.115,8.919 58.199,9.834 57.130,9.834 ZM40.861,15.323 L36.661,11.130 C35.897,10.368 35.897,9.148 36.661,8.385 C37.424,7.623 38.723,7.623 39.410,8.385 L43.611,12.579 C44.375,13.340 44.375,14.561 43.611,15.323 C42.847,16.086 41.625,16.086 40.861,15.323 ZM73.322,42.236 L77.522,46.428 C78.286,47.191 78.286,48.411 77.522,49.173 C76.758,49.936 75.536,49.936 74.773,49.173 L70.572,44.980 C69.808,44.218 69.808,42.998 70.572,42.236 C71.336,41.473 72.558,41.473 73.322,42.236 Z"/>
</svg>