<svg 
 xmlns="http://www.w3.org/2000/svg"
 xmlns:xlink="http://www.w3.org/1999/xlink"
 width="180px" height="126px">
<path fill-rule="evenodd"  opacity="0.051" fill="currentColor"
 d="M175.844,64.680 L163.535,64.680 C161.297,64.680 159.379,62.759 159.379,60.518 C159.379,58.276 161.297,56.355 163.535,56.355 L175.844,56.355 C178.082,56.355 180.000,58.115 180.000,60.518 C180.000,62.759 178.082,64.680 175.844,64.680 ZM153.464,32.179 C151.865,33.781 149.307,33.781 147.709,32.179 C146.110,30.579 146.110,28.017 147.709,26.416 L156.501,17.610 C158.100,16.009 160.657,16.009 162.256,17.610 C163.855,19.211 163.855,21.773 162.256,23.374 L153.464,32.179 ZM147.229,72.365 C146.110,75.247 144.352,77.968 142.274,80.371 C143.712,83.892 144.352,87.894 144.352,91.897 C144.352,101.343 140.515,109.828 134.441,115.912 C128.366,122.156 119.893,125.839 110.302,125.998 L29.893,125.998 C21.580,125.998 14.227,122.637 8.792,117.194 C3.357,111.750 -0.000,104.225 -0.000,96.060 C-0.000,87.734 3.357,80.371 8.792,74.926 C13.428,70.283 19.502,67.242 26.376,66.441 C28.614,57.315 33.570,49.310 40.284,43.547 C47.797,36.982 57.708,33.140 68.259,33.140 C77.211,33.140 85.684,35.862 92.717,40.825 C93.357,41.305 94.156,41.946 94.796,42.426 C97.193,39.224 100.231,36.502 103.588,34.421 C108.224,31.699 113.659,30.098 119.254,30.098 C127.567,30.098 135.240,33.621 140.675,39.064 C146.270,44.507 149.627,52.192 149.627,60.518 C149.627,64.520 148.828,68.682 147.229,72.365 ZM99.431,69.003 C96.234,70.444 93.197,72.685 90.799,75.407 C89.360,77.008 86.803,77.168 85.044,75.727 C83.446,74.286 83.286,71.724 84.725,69.963 C87.922,66.281 91.918,63.399 96.234,61.478 C97.034,60.997 97.833,60.678 98.792,60.357 C96.234,55.394 92.398,51.071 87.922,48.030 C82.167,44.027 75.293,41.785 68.099,41.785 C59.467,41.785 51.474,44.827 45.399,50.111 C39.325,55.394 35.009,62.759 33.730,71.244 C33.570,72.365 32.930,73.326 31.971,73.966 C31.492,74.286 30.692,74.446 30.053,74.446 C24.138,74.446 18.703,77.008 14.866,80.850 C10.870,84.692 8.472,90.136 8.472,96.060 C8.472,101.984 11.030,107.427 14.866,111.270 C18.863,115.272 24.138,117.674 30.213,118.314 L109.982,118.314 C117.176,118.314 123.570,115.432 128.206,110.790 C132.842,106.146 135.719,99.742 135.719,92.538 C135.719,85.333 132.842,78.929 128.206,74.286 C123.570,69.643 117.016,66.761 109.982,66.761 C106.305,66.761 102.629,67.562 99.431,69.003 ZM135.240,44.667 C131.243,40.665 125.648,38.264 119.574,38.264 C115.417,38.264 111.421,39.384 108.064,41.466 C105.346,43.227 102.948,45.468 101.190,48.189 C103.748,51.232 105.986,54.434 107.584,58.115 C108.544,57.956 109.663,57.956 110.622,57.956 C120.053,57.956 128.526,61.798 134.600,67.882 C135.879,69.163 137.158,70.604 138.277,72.204 C138.917,71.084 139.396,70.123 139.876,69.003 C140.995,66.281 141.634,63.399 141.634,60.357 C141.634,54.273 139.236,48.669 135.240,44.667 ZM119.574,20.652 C117.336,20.652 115.417,18.731 115.417,16.489 L115.417,4.002 C115.417,1.760 117.336,-0.001 119.574,-0.001 C121.812,-0.001 123.730,1.920 123.730,4.162 L123.730,16.489 C123.730,18.731 121.812,20.652 119.574,20.652 ZM85.524,32.179 L76.732,23.374 C75.133,21.773 75.133,19.211 76.732,17.610 C78.330,16.009 81.048,16.009 82.487,17.610 L91.279,26.416 C92.877,28.017 92.877,30.579 91.279,32.179 C89.680,33.781 87.122,33.781 85.524,32.179 ZM153.464,88.695 L162.256,97.501 C163.855,99.102 163.855,101.664 162.256,103.265 C160.657,104.865 158.100,104.865 156.501,103.265 L147.709,94.459 C146.110,92.858 146.110,90.297 147.709,88.695 C149.307,87.094 151.865,87.094 153.464,88.695 Z"/>
</svg>