<svg 
 xmlns="http://www.w3.org/2000/svg"
 xmlns:xlink="http://www.w3.org/1999/xlink"
 width="180px" height="180px">
<path fill-rule="evenodd"  opacity="0.051" fill="currentColor"
 d="M162.000,152.999 L162.000,161.999 L153.000,161.999 L153.000,179.999 L27.000,179.999 L27.000,161.999 L18.000,161.999 L18.000,152.999 L-0.000,152.999 L-0.000,50.999 L27.000,50.999 L27.000,-0.001 L153.000,-0.001 L153.000,50.999 L180.000,50.999 L180.000,152.999 L162.000,152.999 ZM33.000,161.999 L33.000,173.999 L147.000,173.999 L147.000,161.999 L147.000,110.999 L33.000,110.999 L33.000,161.999 ZM6.000,146.999 L18.000,146.999 L18.000,134.999 C18.000,133.341 19.341,131.999 21.000,131.999 C22.659,131.999 24.000,133.341 24.000,134.999 L24.000,146.999 L24.000,149.999 L24.000,155.999 L27.000,155.999 L27.000,110.999 L6.000,110.999 L6.000,146.999 ZM147.000,5.999 L33.000,5.999 L33.000,50.999 L147.000,50.999 L147.000,5.999 ZM174.000,56.999 L153.000,56.999 L27.000,56.999 L6.000,56.999 L6.000,104.999 L174.000,104.999 L174.000,56.999 ZM174.000,110.999 L153.000,110.999 L153.000,155.999 L156.000,155.999 L156.000,149.999 L156.000,146.999 L156.000,134.999 C156.000,133.341 157.341,131.999 159.000,131.999 C160.659,131.999 162.000,133.341 162.000,134.999 L162.000,146.999 L174.000,146.999 L174.000,110.999 ZM18.000,65.999 L27.000,65.999 C28.659,65.999 30.000,67.340 30.000,68.999 C30.000,70.658 28.659,71.999 27.000,71.999 L18.000,71.999 C16.341,71.999 15.000,70.658 15.000,68.999 C15.000,67.340 16.341,65.999 18.000,65.999 ZM18.000,77.999 L27.000,77.999 C28.659,77.999 30.000,79.340 30.000,80.999 C30.000,82.658 28.659,83.999 27.000,83.999 L18.000,83.999 C16.341,83.999 15.000,82.658 15.000,80.999 C15.000,79.340 16.341,77.999 18.000,77.999 ZM18.000,89.999 L27.000,89.999 C28.659,89.999 30.000,91.340 30.000,92.999 C30.000,94.658 28.659,95.999 27.000,95.999 L18.000,95.999 C16.341,95.999 15.000,94.658 15.000,92.999 C15.000,91.340 16.341,89.999 18.000,89.999 ZM39.000,65.999 L48.000,65.999 C49.659,65.999 51.000,67.340 51.000,68.999 C51.000,70.658 49.659,71.999 48.000,71.999 L39.000,71.999 C37.341,71.999 36.000,70.658 36.000,68.999 C36.000,67.340 37.341,65.999 39.000,65.999 ZM39.000,77.999 L48.000,77.999 C49.659,77.999 51.000,79.340 51.000,80.999 C51.000,82.658 49.659,83.999 48.000,83.999 L39.000,83.999 C37.341,83.999 36.000,82.658 36.000,80.999 C36.000,79.340 37.341,77.999 39.000,77.999 ZM39.000,89.999 L48.000,89.999 C49.659,89.999 51.000,91.340 51.000,92.999 C51.000,94.658 49.659,95.999 48.000,95.999 L39.000,95.999 C37.341,95.999 36.000,94.658 36.000,92.999 C36.000,91.340 37.341,89.999 39.000,89.999 ZM60.000,65.999 L69.000,65.999 C70.659,65.999 72.000,67.340 72.000,68.999 C72.000,70.658 70.659,71.999 69.000,71.999 L60.000,71.999 C58.341,71.999 57.000,70.658 57.000,68.999 C57.000,67.340 58.341,65.999 60.000,65.999 ZM60.000,77.999 L69.000,77.999 C70.659,77.999 72.000,79.340 72.000,80.999 C72.000,82.658 70.659,83.999 69.000,83.999 L60.000,83.999 C58.341,83.999 57.000,82.658 57.000,80.999 C57.000,79.340 58.341,77.999 60.000,77.999 ZM60.000,89.999 L69.000,89.999 C70.659,89.999 72.000,91.340 72.000,92.999 C72.000,94.658 70.659,95.999 69.000,95.999 L60.000,95.999 C58.341,95.999 57.000,94.658 57.000,92.999 C57.000,91.340 58.341,89.999 60.000,89.999 ZM150.000,65.999 C158.271,65.999 165.000,72.728 165.000,80.999 C165.000,89.270 158.271,95.999 150.000,95.999 C141.729,95.999 135.000,89.270 135.000,80.999 C135.000,72.728 141.729,65.999 150.000,65.999 ZM150.000,89.999 C154.962,89.999 159.000,85.961 159.000,80.999 C159.000,76.037 154.962,71.999 150.000,71.999 C145.038,71.999 141.000,76.037 141.000,80.999 C141.000,85.961 145.038,89.999 150.000,89.999 ZM54.000,20.999 L108.000,20.999 C109.659,20.999 111.000,22.340 111.000,23.999 C111.000,25.658 109.659,26.999 108.000,26.999 L54.000,26.999 C52.341,26.999 51.000,25.658 51.000,23.999 C51.000,22.340 52.341,20.999 54.000,20.999 ZM54.000,36.000 L126.000,36.000 C127.659,36.000 129.000,37.340 129.000,38.999 C129.000,40.658 127.659,41.999 126.000,41.999 L54.000,41.999 C52.341,41.999 51.000,40.658 51.000,38.999 C51.000,37.340 52.341,36.000 54.000,36.000 ZM126.000,149.999 L54.000,149.999 C52.341,149.999 51.000,148.657 51.000,146.999 C51.000,145.340 52.341,143.999 54.000,143.999 L126.000,143.999 C127.659,143.999 129.000,145.340 129.000,146.999 C129.000,148.657 127.659,149.999 126.000,149.999 ZM126.000,134.999 L54.000,134.999 C52.341,134.999 51.000,133.658 51.000,131.999 C51.000,130.340 52.341,128.999 54.000,128.999 L126.000,128.999 C127.659,128.999 129.000,130.340 129.000,131.999 C129.000,133.658 127.659,134.999 126.000,134.999 Z"/>
</svg>