<svg 
 xmlns="http://www.w3.org/2000/svg"
 xmlns:xlink="http://www.w3.org/1999/xlink"
 width="60px" height="60px">
<path fill-rule="evenodd"  fill="currentColor"
 d="M54.000,50.999 L54.000,53.999 L51.000,53.999 L51.000,59.999 L9.000,59.999 L9.000,53.999 L6.000,53.999 L6.000,50.999 L-0.000,50.999 L-0.000,16.999 L9.000,16.999 L9.000,-0.001 L51.000,-0.001 L51.000,16.999 L60.000,16.999 L60.000,50.999 L54.000,50.999 ZM11.000,53.999 L11.000,57.999 L49.000,57.999 L49.000,53.999 L49.000,36.999 L11.000,36.999 L11.000,53.999 ZM2.000,48.999 L6.000,48.999 L6.000,44.999 C6.000,44.446 6.447,43.999 7.000,43.999 C7.553,43.999 8.000,44.446 8.000,44.999 L8.000,48.999 L8.000,49.999 L8.000,51.999 L9.000,51.999 L9.000,36.999 L2.000,36.999 L2.000,48.999 ZM49.000,1.999 L11.000,1.999 L11.000,16.999 L49.000,16.999 L49.000,1.999 ZM58.000,18.999 L51.000,18.999 L9.000,18.999 L2.000,18.999 L2.000,34.999 L58.000,34.999 L58.000,18.999 ZM58.000,36.999 L51.000,36.999 L51.000,51.999 L52.000,51.999 L52.000,49.999 L52.000,48.999 L52.000,44.999 C52.000,44.446 52.447,43.999 53.000,43.999 C53.553,43.999 54.000,44.446 54.000,44.999 L54.000,48.999 L58.000,48.999 L58.000,36.999 ZM6.000,21.999 L9.000,21.999 C9.553,21.999 10.000,22.446 10.000,22.999 C10.000,23.552 9.553,23.999 9.000,23.999 L6.000,23.999 C5.447,23.999 5.000,23.552 5.000,22.999 C5.000,22.446 5.447,21.999 6.000,21.999 ZM6.000,25.999 L9.000,25.999 C9.553,25.999 10.000,26.446 10.000,26.999 C10.000,27.552 9.553,27.999 9.000,27.999 L6.000,27.999 C5.447,27.999 5.000,27.552 5.000,26.999 C5.000,26.446 5.447,25.999 6.000,25.999 ZM6.000,29.999 L9.000,29.999 C9.553,29.999 10.000,30.446 10.000,30.999 C10.000,31.551 9.553,31.999 9.000,31.999 L6.000,31.999 C5.447,31.999 5.000,31.551 5.000,30.999 C5.000,30.446 5.447,29.999 6.000,29.999 ZM13.000,21.999 L16.000,21.999 C16.553,21.999 17.000,22.446 17.000,22.999 C17.000,23.552 16.553,23.999 16.000,23.999 L13.000,23.999 C12.447,23.999 12.000,23.552 12.000,22.999 C12.000,22.446 12.447,21.999 13.000,21.999 ZM13.000,25.999 L16.000,25.999 C16.553,25.999 17.000,26.446 17.000,26.999 C17.000,27.552 16.553,27.999 16.000,27.999 L13.000,27.999 C12.447,27.999 12.000,27.552 12.000,26.999 C12.000,26.446 12.447,25.999 13.000,25.999 ZM13.000,29.999 L16.000,29.999 C16.553,29.999 17.000,30.446 17.000,30.999 C17.000,31.551 16.553,31.999 16.000,31.999 L13.000,31.999 C12.447,31.999 12.000,31.551 12.000,30.999 C12.000,30.446 12.447,29.999 13.000,29.999 ZM20.000,21.999 L23.000,21.999 C23.553,21.999 24.000,22.446 24.000,22.999 C24.000,23.552 23.553,23.999 23.000,23.999 L20.000,23.999 C19.447,23.999 19.000,23.552 19.000,22.999 C19.000,22.446 19.447,21.999 20.000,21.999 ZM20.000,25.999 L23.000,25.999 C23.553,25.999 24.000,26.446 24.000,26.999 C24.000,27.552 23.553,27.999 23.000,27.999 L20.000,27.999 C19.447,27.999 19.000,27.552 19.000,26.999 C19.000,26.446 19.447,25.999 20.000,25.999 ZM20.000,29.999 L23.000,29.999 C23.553,29.999 24.000,30.446 24.000,30.999 C24.000,31.551 23.553,31.999 23.000,31.999 L20.000,31.999 C19.447,31.999 19.000,31.551 19.000,30.999 C19.000,30.446 19.447,29.999 20.000,29.999 ZM50.000,21.999 C52.757,21.999 55.000,24.242 55.000,26.999 C55.000,29.756 52.757,31.999 50.000,31.999 C47.243,31.999 45.000,29.756 45.000,26.999 C45.000,24.242 47.243,21.999 50.000,21.999 ZM50.000,29.999 C51.654,29.999 53.000,28.653 53.000,26.999 C53.000,25.344 51.654,23.999 50.000,23.999 C48.346,23.999 47.000,25.344 47.000,26.999 C47.000,28.653 48.346,29.999 50.000,29.999 ZM18.000,6.999 L36.000,6.999 C36.553,6.999 37.000,7.446 37.000,7.999 C37.000,8.552 36.553,8.999 36.000,8.999 L18.000,8.999 C17.447,8.999 17.000,8.552 17.000,7.999 C17.000,7.446 17.447,6.999 18.000,6.999 ZM18.000,11.999 L42.000,11.999 C42.553,11.999 43.000,12.446 43.000,12.999 C43.000,13.552 42.553,13.999 42.000,13.999 L18.000,13.999 C17.447,13.999 17.000,13.552 17.000,12.999 C17.000,12.446 17.447,11.999 18.000,11.999 ZM42.000,49.999 L18.000,49.999 C17.447,49.999 17.000,49.552 17.000,48.999 C17.000,48.446 17.447,47.999 18.000,47.999 L42.000,47.999 C42.553,47.999 43.000,48.446 43.000,48.999 C43.000,49.552 42.553,49.999 42.000,49.999 ZM42.000,44.999 L18.000,44.999 C17.447,44.999 17.000,44.552 17.000,43.999 C17.000,43.446 17.447,42.999 18.000,42.999 L42.000,42.999 C42.553,42.999 43.000,43.446 43.000,43.999 C43.000,44.552 42.553,44.999 42.000,44.999 Z"/>
</svg>