<svg 
 xmlns="http://www.w3.org/2000/svg"
 xmlns:xlink="http://www.w3.org/1999/xlink"
 width="60px" height="62px">
<path fill-rule="evenodd"  fill="currentColor"
 d="M59.639,2.162 C59.624,2.144 59.617,2.126 59.610,2.116 C59.595,2.091 59.572,2.077 59.565,2.057 C59.132,1.463 58.446,1.076 57.660,1.076 L57.656,1.076 L17.665,1.076 L17.661,1.076 C16.358,1.076 15.308,2.131 15.308,3.431 L15.308,3.434 L15.308,5.487 L15.308,13.201 L15.308,17.541 L15.308,25.258 L15.308,29.592 L15.308,37.304 L15.308,41.643 L15.308,49.359 L15.308,51.412 L15.308,51.412 C15.308,51.883 15.449,52.323 15.688,52.692 C15.699,52.703 15.703,52.718 15.710,52.731 C15.730,52.753 15.748,52.770 15.759,52.789 C16.187,53.384 16.877,53.771 17.661,53.771 L17.665,53.771 L20.592,53.771 C20.100,56.967 17.358,59.430 14.025,59.430 C10.658,59.430 7.895,56.916 7.451,53.665 L10.403,53.665 L10.403,53.665 C11.707,53.665 12.758,52.610 12.758,51.311 L12.758,51.309 L12.758,49.258 L12.758,41.541 L12.758,37.204 L12.758,29.492 L12.758,25.154 L12.758,17.436 L12.758,13.098 L12.758,5.385 L12.758,3.329 L12.758,3.326 C12.758,2.860 12.621,2.421 12.382,2.058 C12.372,2.045 12.363,2.025 12.351,2.013 C12.340,1.990 12.324,1.973 12.308,1.956 C11.878,1.365 11.188,0.975 10.401,0.975 L10.401,0.975 L2.345,0.975 L2.341,0.975 C1.039,0.975 -0.010,2.030 -0.010,3.326 L-0.010,3.329 L-0.010,5.384 L-0.010,13.096 L-0.010,17.434 L-0.010,25.151 L-0.010,29.488 L-0.010,37.200 L-0.010,41.537 L-0.010,49.253 L-0.010,51.308 L-0.010,51.309 C-0.010,51.781 0.127,52.218 0.365,52.586 C0.377,52.597 0.385,52.614 0.392,52.625 C0.407,52.649 0.425,52.666 0.436,52.685 C0.869,53.279 1.554,53.665 2.341,53.665 L2.345,53.665 L5.852,53.665 C6.309,57.792 9.779,61.023 14.023,61.023 C18.235,61.023 21.685,57.842 22.186,53.767 L57.654,53.767 L57.658,53.767 C58.961,53.767 60.010,52.711 60.010,51.413 L60.010,51.410 L60.010,49.356 L60.010,41.640 L60.010,37.304 L60.010,29.592 L60.010,25.256 L60.010,17.541 L60.010,13.204 L60.010,5.489 L60.010,3.435 L60.010,3.434 C60.016,2.962 59.874,2.525 59.639,2.162 ZM30.456,36.581 C30.456,37.136 30.005,37.584 29.450,37.584 L23.912,37.584 C23.356,37.584 22.907,37.136 22.907,36.581 L22.907,34.233 C22.907,33.681 23.356,33.230 23.912,33.230 L29.450,33.230 C30.005,33.230 30.456,33.681 30.456,34.233 L30.456,36.581 ZM30.456,28.598 C30.456,29.153 30.005,29.603 29.450,29.603 L23.912,29.603 C23.356,29.603 22.907,29.153 22.907,28.598 L22.907,26.252 C22.907,25.697 23.356,25.246 23.912,25.246 L29.450,25.246 C30.005,25.246 30.456,25.697 30.456,26.252 L30.456,28.598 ZM30.456,20.614 C30.456,21.166 30.005,21.618 29.450,21.618 L23.912,21.618 C23.356,21.618 22.907,21.166 22.907,20.614 L22.907,18.268 C22.907,17.713 23.356,17.262 23.912,17.262 L29.450,17.262 C30.005,17.262 30.456,17.713 30.456,18.268 L30.456,20.614 ZM41.437,36.581 C41.437,37.136 40.990,37.584 40.431,37.584 L34.893,37.584 C34.334,37.584 33.889,37.136 33.889,36.581 L33.889,34.233 C33.889,33.681 34.334,33.230 34.893,33.230 L40.431,33.230 C40.990,33.230 41.437,33.681 41.437,34.233 L41.437,36.581 ZM41.437,28.598 C41.437,29.153 40.990,29.603 40.431,29.603 L34.893,29.603 C34.334,29.603 33.889,29.153 33.889,28.598 L33.889,26.252 C33.889,25.697 34.334,25.246 34.893,25.246 L40.431,25.246 C40.990,25.246 41.437,25.697 41.437,26.252 L41.437,28.598 ZM41.437,20.614 C41.437,21.166 40.990,21.618 40.431,21.618 L34.893,21.618 C34.334,21.618 33.889,21.166 33.889,20.614 L33.889,18.268 C33.889,17.713 34.334,17.262 34.893,17.262 L40.431,17.262 C40.990,17.262 41.437,17.713 41.437,18.268 L41.437,20.614 ZM52.419,36.581 C52.419,37.136 51.968,37.584 51.409,37.584 L45.875,37.584 C45.316,37.584 44.867,37.136 44.867,36.581 L44.867,34.233 C44.867,33.681 45.316,33.230 45.875,33.230 L51.409,33.230 C51.968,33.230 52.419,33.681 52.419,34.233 L52.419,36.581 ZM52.419,28.598 C52.419,29.153 51.968,29.603 51.409,29.603 L45.875,29.603 C45.316,29.603 44.867,29.153 44.867,28.598 L44.867,26.252 C44.867,25.697 45.316,25.246 45.875,25.246 L51.409,25.246 C51.968,25.246 52.419,25.697 52.419,26.252 L52.419,28.598 ZM52.419,20.614 C52.419,21.166 51.968,21.618 51.409,21.618 L45.875,21.618 C45.316,21.618 44.867,21.166 44.867,20.614 L44.867,18.268 C44.867,17.713 45.316,17.262 45.875,17.262 L51.409,17.262 C51.968,17.262 52.419,17.713 52.419,18.268 L52.419,20.614 Z"/>
</svg>