<svg 
 xmlns="http://www.w3.org/2000/svg"
 xmlns:xlink="http://www.w3.org/1999/xlink"
 width="180px" height="159px">
<path fill-rule="evenodd"  opacity="0.051" fill="currentColor"
 d="M179.533,105.489 L118.585,1.528 C117.976,0.611 117.061,-0.001 115.843,-0.001 L60.990,-0.001 C59.771,-0.001 58.856,0.611 58.247,1.222 L0.346,99.069 C0.042,99.985 -0.263,101.209 0.346,102.126 L27.341,156.299 C27.394,156.712 27.536,157.114 27.773,157.470 C28.016,157.836 28.356,158.149 28.734,158.398 C29.230,158.794 29.822,158.999 30.516,158.999 L149.364,158.999 C150.583,158.999 151.498,158.388 152.107,157.470 L179.533,108.547 C180.142,107.630 180.142,106.407 179.533,105.489 ZM171.610,103.961 L120.718,103.961 L89.449,47.871 C89.389,47.496 89.249,47.119 89.025,46.782 L66.296,6.115 L114.014,6.115 L171.610,103.961 ZM113.593,103.961 L60.905,103.961 L86.261,54.885 L113.593,103.961 ZM60.892,9.336 L73.270,31.560 L82.626,48.617 L53.371,105.093 C53.263,105.218 53.160,105.349 53.066,105.489 L30.489,149.160 L6.441,100.903 L60.892,9.336 ZM147.535,152.884 L35.628,152.884 L57.745,110.076 L118.890,110.076 L171.610,110.076 L147.535,152.884 Z"/>
</svg>