<svg 
 xmlns="http://www.w3.org/2000/svg"
 xmlns:xlink="http://www.w3.org/1999/xlink"
 width="65px" height="60px">
<path fill-rule="evenodd"  fill="currentColor"
 d="M63.917,60.000 L50.917,60.000 L47.667,60.000 L34.667,60.000 L31.417,60.000 L18.417,60.000 L15.167,60.000 L2.167,60.000 L1.083,60.000 C0.485,60.000 -0.000,59.512 -0.000,58.909 C-0.000,58.305 0.485,57.818 1.083,57.818 L2.167,57.818 L2.167,42.541 L15.167,42.541 L15.167,57.818 L18.417,57.818 L18.417,32.720 L31.417,32.720 L31.417,57.818 L34.667,57.818 L34.667,23.992 L47.667,23.992 L47.667,57.818 L50.917,57.818 L50.917,15.262 L63.917,15.262 L63.917,57.818 C64.515,57.818 65.000,58.305 65.000,58.909 C65.000,59.512 64.515,60.000 63.917,60.000 ZM13.000,44.724 L4.333,44.724 L4.333,57.818 L13.000,57.818 L13.000,44.724 ZM29.250,34.903 L20.583,34.903 L20.583,57.818 L29.250,57.818 L29.250,34.903 ZM45.500,26.174 L36.833,26.174 L36.833,57.818 L45.500,57.818 L45.500,26.174 ZM61.750,17.444 L53.083,17.444 L53.083,57.818 L61.750,57.818 L61.750,17.444 ZM51.923,2.349 C51.913,2.377 51.915,2.407 51.904,2.434 L48.045,10.978 C47.863,11.379 47.469,11.618 47.058,11.618 C46.907,11.618 46.754,11.587 46.609,11.519 C46.064,11.270 45.824,10.623 46.072,10.075 L48.531,4.629 L9.240,27.479 C9.070,27.578 8.882,27.625 8.699,27.625 C8.324,27.625 7.960,27.430 7.760,27.079 C7.461,26.558 7.637,25.890 8.156,25.589 L47.444,2.740 L41.534,2.163 C40.939,2.105 40.503,1.571 40.561,0.971 C40.618,0.373 41.143,-0.070 41.744,-0.009 L51.020,0.897 C51.049,0.899 51.071,0.915 51.100,0.921 C51.161,0.932 51.220,0.947 51.280,0.968 C51.307,0.979 51.336,0.976 51.363,0.988 C51.375,0.993 51.381,1.005 51.393,1.010 C51.430,1.029 51.460,1.052 51.494,1.074 C51.544,1.107 51.588,1.144 51.633,1.185 C51.665,1.214 51.701,1.237 51.729,1.270 C51.756,1.300 51.774,1.337 51.796,1.370 C51.814,1.395 51.840,1.411 51.855,1.437 C51.870,1.463 51.870,1.493 51.884,1.518 C51.901,1.556 51.924,1.588 51.937,1.628 C51.951,1.668 51.953,1.711 51.962,1.752 C51.975,1.812 51.985,1.869 51.988,1.929 C51.990,1.970 51.995,2.009 51.992,2.050 C51.991,2.063 51.997,2.074 51.996,2.087 C51.993,2.118 51.976,2.144 51.971,2.175 C51.960,2.236 51.944,2.291 51.923,2.349 Z"/>
</svg>