<svg 
 xmlns="http://www.w3.org/2000/svg"
 xmlns:xlink="http://www.w3.org/1999/xlink"
 width="37px" height="60px">
<path fill-rule="evenodd"  fill="currentColor"
 d="M31.943,-0.001 L5.056,-0.001 C2.816,-0.001 0.983,1.822 0.983,4.052 L0.983,55.944 C0.983,58.174 2.816,59.999 5.056,59.999 L31.943,59.999 C34.183,59.999 36.017,58.178 36.017,55.946 L36.017,4.052 C36.017,1.822 34.183,-0.001 31.943,-0.001 ZM14.199,2.920 L22.801,2.920 C23.074,2.920 23.294,3.140 23.294,3.413 C23.294,3.683 23.074,3.902 22.801,3.902 L14.199,3.902 C13.927,3.902 13.706,3.683 13.706,3.413 C13.706,3.140 13.927,2.920 14.199,2.920 ZM18.500,57.973 C17.375,57.973 16.463,57.066 16.463,55.946 C16.463,54.826 17.375,53.920 18.500,53.920 C19.624,53.920 20.536,54.826 20.536,55.946 C20.536,57.066 19.624,57.973 18.500,57.973 ZM33.183,52.499 L3.818,52.499 L3.818,6.426 L33.183,6.426 L33.183,52.499 Z"/>
</svg>