<svg 
 xmlns="http://www.w3.org/2000/svg"
 xmlns:xlink="http://www.w3.org/1999/xlink"
 width="105px" height="180px">
<path fill-rule="evenodd"  opacity="0.051" fill="currentColor"
 d="M92.785,-0.001 L12.213,-0.001 C5.500,-0.001 0.007,5.465 0.007,12.158 L0.007,167.835 C0.007,174.525 5.500,179.999 12.213,179.999 L92.785,179.999 C99.497,179.999 104.993,174.535 104.993,167.840 L104.993,12.158 C104.993,5.465 99.497,-0.001 92.785,-0.001 ZM39.611,8.762 L65.389,8.762 C66.206,8.762 66.866,9.421 66.866,10.240 C66.866,11.051 66.206,11.709 65.389,11.709 L39.611,11.709 C38.797,11.709 38.134,11.051 38.134,10.240 C38.134,9.421 38.797,8.762 39.611,8.762 ZM52.500,173.922 C49.129,173.922 46.396,171.200 46.396,167.840 C46.396,164.480 49.129,161.763 52.500,161.763 C55.868,161.763 58.601,164.480 58.601,167.840 C58.601,171.200 55.868,173.922 52.500,173.922 ZM96.502,157.499 L8.501,157.499 L8.501,19.279 L96.502,19.279 L96.502,157.499 Z"/>
</svg>