<svg 
 xmlns="http://www.w3.org/2000/svg"
 xmlns:xlink="http://www.w3.org/1999/xlink"
 width="180px" height="166px">
<path fill-rule="evenodd"  opacity="0.051" fill="currentColor"
 d="M177.000,166.001 L141.000,166.001 L132.000,166.001 L96.000,166.001 L87.000,166.001 L51.000,166.001 L42.000,166.001 L6.000,166.001 L3.000,166.001 C1.344,166.001 -0.000,164.660 -0.000,163.000 C-0.000,161.341 1.344,160.000 3.000,160.000 L6.000,160.000 L6.000,117.990 L42.000,117.990 L42.000,160.000 L51.000,160.000 L51.000,90.983 L87.000,90.983 L87.000,160.000 L96.000,160.000 L96.000,66.978 L132.000,66.978 L132.000,160.000 L141.000,160.000 L141.000,42.972 L177.000,42.972 L177.000,160.000 C178.656,160.000 180.000,161.341 180.000,163.000 C180.000,164.660 178.656,166.001 177.000,166.001 ZM36.000,123.991 L12.000,123.991 L12.000,160.000 L36.000,160.000 L36.000,123.991 ZM81.000,96.985 L57.000,96.985 L57.000,160.000 L81.000,160.000 L81.000,96.985 ZM126.000,72.979 L102.000,72.979 L102.000,160.000 L126.000,160.000 L126.000,72.979 ZM171.000,48.973 L147.000,48.973 L147.000,160.000 L171.000,160.000 L171.000,48.973 ZM143.787,7.462 C143.760,7.539 143.766,7.620 143.733,7.695 L133.047,31.191 C132.543,32.295 131.454,32.949 130.314,32.949 C129.897,32.949 129.474,32.865 129.072,32.679 C127.563,31.995 126.897,30.215 127.584,28.707 L134.394,13.732 L25.587,76.568 C25.116,76.841 24.597,76.970 24.090,76.970 C23.052,76.970 22.044,76.433 21.489,75.469 C20.661,74.035 21.150,72.199 22.587,71.371 L131.385,8.535 L115.017,6.948 C113.370,6.789 112.161,5.321 112.323,3.671 C112.482,2.027 113.934,0.809 115.599,0.976 L141.285,3.467 C141.366,3.473 141.429,3.518 141.507,3.533 C141.678,3.563 141.840,3.605 142.005,3.665 C142.080,3.692 142.161,3.686 142.236,3.719 C142.269,3.734 142.287,3.764 142.320,3.779 C142.422,3.829 142.506,3.896 142.599,3.956 C142.737,4.046 142.860,4.148 142.983,4.260 C143.073,4.340 143.172,4.403 143.250,4.493 C143.325,4.578 143.373,4.676 143.436,4.770 C143.484,4.839 143.556,4.881 143.598,4.952 C143.640,5.025 143.640,5.106 143.679,5.175 C143.727,5.280 143.790,5.369 143.826,5.478 C143.865,5.589 143.871,5.705 143.895,5.820 C143.931,5.985 143.958,6.141 143.967,6.306 C143.973,6.420 143.985,6.525 143.979,6.639 C143.976,6.675 143.991,6.705 143.988,6.741 C143.982,6.828 143.934,6.897 143.919,6.981 C143.889,7.149 143.844,7.302 143.787,7.462 Z"/>
</svg>