<svg 
 xmlns="http://www.w3.org/2000/svg"
 xmlns:xlink="http://www.w3.org/1999/xlink"
 width="180px" height="180px">
<path fill-rule="evenodd"  opacity="0.051" fill="currentColor"
 d="M174.600,87.146 C171.619,87.146 169.202,84.729 169.202,81.748 C169.202,62.796 161.821,44.979 148.420,31.578 C135.018,18.176 117.201,10.796 98.249,10.797 C95.267,10.797 92.850,8.380 92.850,5.398 C92.850,2.417 95.267,-0.000 98.249,-0.000 C120.084,-0.001 140.614,8.502 156.056,23.943 C171.496,39.384 180.000,59.912 179.999,81.748 C179.999,84.729 177.581,87.146 174.600,87.146 ZM98.251,54.767 C98.251,54.767 98.253,54.767 98.253,54.767 C105.563,54.767 112.158,57.499 117.328,62.669 C122.498,67.840 125.230,74.436 125.230,81.746 C125.229,84.727 122.813,87.144 119.831,87.144 L119.831,87.144 C116.850,87.143 114.432,84.727 114.433,81.745 C114.433,77.362 112.794,73.404 109.694,70.303 C106.549,67.159 102.699,65.564 98.254,65.564 C98.253,65.564 98.253,65.564 98.252,65.564 C95.271,65.565 92.854,63.148 92.853,60.166 C92.852,57.185 95.269,54.768 98.251,54.767 ZM98.251,27.383 C112.771,27.382 126.424,33.038 136.692,43.306 C146.960,53.575 152.615,67.227 152.615,81.747 C152.615,84.728 150.197,87.145 147.216,87.145 C144.235,87.145 141.818,84.728 141.818,81.746 C141.818,70.110 137.287,59.170 129.058,50.941 C120.828,42.712 109.888,38.179 98.251,38.180 C95.269,38.180 92.852,35.763 92.852,32.782 C92.852,29.801 95.269,27.383 98.251,27.383 ZM65.273,66.545 C63.167,68.651 60.402,69.703 57.637,69.703 C56.628,69.703 55.619,69.560 54.641,69.278 L51.177,72.741 C51.177,72.741 51.176,72.741 51.176,72.742 C48.719,75.204 52.496,90.507 70.993,109.003 C89.493,127.502 104.798,131.279 107.255,128.818 C107.256,128.817 107.257,128.816 107.258,128.815 L110.719,125.355 C109.669,121.700 110.578,117.597 113.451,114.723 L122.623,105.552 C126.834,101.342 133.683,101.342 137.893,105.552 L173.164,140.821 C177.373,145.031 177.373,151.881 173.163,156.091 L163.991,165.264 C161.952,167.302 159.241,168.425 156.356,168.425 C155.326,168.425 154.320,168.276 153.357,167.998 L151.432,169.923 C144.748,176.607 135.423,179.999 124.239,179.999 C117.417,179.999 109.905,178.738 101.875,176.194 C81.886,169.859 60.711,156.205 42.251,137.745 C23.790,119.285 10.135,98.111 3.801,78.122 C-2.667,57.707 -0.837,40.632 8.920,29.787 C9.066,29.600 12.000,26.638 12.000,26.638 C10.950,22.984 11.859,18.880 14.732,16.007 L23.905,6.834 C25.944,4.796 28.655,3.673 31.539,3.673 C34.423,3.673 37.135,4.795 39.174,6.834 L74.444,42.104 C78.654,46.315 78.654,53.164 74.444,57.374 L65.273,66.545 ZM156.357,157.628 C156.360,157.632 165.529,148.456 165.529,148.456 L130.258,113.187 L121.086,122.358 L156.357,157.628 ZM17.708,36.199 L17.707,36.200 C9.939,43.968 8.656,57.698 14.095,74.860 C19.916,93.230 32.627,112.851 49.887,130.110 C67.145,147.369 86.767,160.080 105.138,165.901 C122.299,171.339 136.029,170.056 143.796,162.290 C143.797,162.290 143.797,162.289 143.798,162.288 L144.774,161.314 L117.402,133.943 L114.894,136.450 C114.893,136.451 114.892,136.451 114.891,136.453 C112.271,139.073 108.829,140.242 104.861,140.242 C93.064,140.242 76.625,129.904 63.359,116.638 C45.634,98.914 33.137,75.526 43.538,65.113 C43.540,65.111 43.542,65.109 43.543,65.107 L46.054,62.596 L18.682,35.225 L17.708,36.199 ZM31.539,14.469 L22.367,23.641 L40.003,41.276 L57.506,58.779 L57.638,58.911 C57.641,58.914 57.643,58.916 57.643,58.916 L66.810,49.739 L31.539,14.469 Z"/>
</svg>