<svg 
 xmlns="http://www.w3.org/2000/svg"
 xmlns:xlink="http://www.w3.org/1999/xlink"
 width="68px" height="60px">
<path fill-rule="evenodd"  fill="currentColor"
 d="M67.792,39.807 L44.778,0.576 C44.548,0.230 44.203,-0.001 43.743,-0.001 L23.030,-0.001 C22.570,-0.001 22.224,0.230 21.994,0.460 L0.131,37.384 C0.016,37.730 -0.099,38.191 0.131,38.537 L10.324,58.980 C10.344,59.135 10.398,59.288 10.487,59.422 C10.579,59.560 10.707,59.678 10.850,59.772 C11.038,59.922 11.261,59.999 11.523,59.999 L56.401,59.999 C56.861,59.999 57.206,59.768 57.436,59.422 L67.793,40.961 C68.022,40.614 68.022,40.152 67.792,39.807 ZM64.801,39.230 L45.584,39.230 L33.776,18.064 C33.754,17.923 33.701,17.780 33.616,17.653 L25.034,2.307 L43.052,2.307 L64.801,39.230 ZM42.893,39.230 L22.998,39.230 L32.572,20.711 L42.893,39.230 ZM22.993,3.522 L27.667,11.909 L31.200,18.346 L20.153,39.657 C20.112,39.704 20.073,39.754 20.038,39.807 L11.513,56.286 L2.432,38.076 L22.993,3.522 ZM55.710,57.691 L13.453,57.691 L21.805,41.537 L44.893,41.537 L64.801,41.537 L55.710,57.691 Z"/>
</svg>