<svg 
 xmlns="http://www.w3.org/2000/svg"
 xmlns:xlink="http://www.w3.org/1999/xlink"
 width="60px" height="60px">
<path fill-rule="evenodd"  fill="currentColor"
 d="M58.200,29.048 C57.206,29.048 56.400,28.242 56.400,27.249 C56.401,20.932 53.940,14.992 49.473,10.525 C45.006,6.058 39.067,3.597 32.749,3.598 C31.756,3.598 30.950,2.793 30.950,1.799 C30.950,0.805 31.756,-0.000 32.749,-0.000 C40.028,-0.001 46.871,2.833 52.019,7.980 C57.165,13.127 60.000,19.970 60.000,27.249 C60.000,28.242 59.194,29.048 58.200,29.048 ZM32.750,18.255 C32.750,18.255 32.751,18.255 32.751,18.255 C35.187,18.255 37.386,19.166 39.109,20.889 C40.833,22.613 41.743,24.812 41.743,27.248 C41.743,28.242 40.938,29.047 39.944,29.047 L39.943,29.047 C38.950,29.047 38.144,28.242 38.144,27.247 C38.144,25.786 37.598,24.467 36.565,23.434 C35.516,22.386 34.233,21.854 32.751,21.854 C32.751,21.854 32.751,21.854 32.751,21.854 C31.757,21.854 30.951,21.049 30.951,20.055 C30.951,19.061 31.756,18.255 32.750,18.255 ZM32.750,9.127 C37.590,9.127 42.141,11.012 45.564,14.435 C48.987,17.858 50.872,22.408 50.872,27.248 C50.872,28.242 50.066,29.048 49.072,29.048 C48.078,29.048 47.272,28.242 47.272,27.248 C47.273,23.369 45.762,19.722 43.019,16.980 C40.276,14.237 36.629,12.726 32.750,12.726 C31.756,12.726 30.951,11.920 30.951,10.926 C30.951,9.932 31.756,9.127 32.750,9.127 ZM21.757,22.181 C21.056,22.883 20.134,23.234 19.212,23.234 C18.876,23.234 18.539,23.186 18.214,23.093 L17.059,24.246 L17.059,24.246 C16.240,25.067 17.498,30.168 23.664,36.333 C29.831,42.501 34.933,43.758 35.752,42.939 C35.752,42.938 35.752,42.938 35.753,42.938 L36.906,41.784 C36.556,40.566 36.859,39.198 37.817,38.240 L40.874,35.184 C42.278,33.780 44.561,33.780 45.964,35.184 L57.721,46.939 C59.124,48.343 59.124,50.626 57.721,52.029 L54.664,55.087 C53.984,55.766 53.080,56.141 52.119,56.141 C51.775,56.141 51.440,56.092 51.119,55.999 L50.477,56.640 C48.249,58.868 45.141,59.999 41.413,59.999 C39.139,59.999 36.635,59.578 33.958,58.731 C27.295,56.619 20.237,52.067 14.084,45.914 C7.930,39.761 3.378,32.703 1.267,26.040 C-0.889,19.235 -0.279,13.544 2.973,9.928 C3.022,9.866 4.000,8.879 4.000,8.879 C3.650,7.661 3.953,6.293 4.911,5.334 L7.968,2.277 C8.648,1.598 9.552,1.223 10.513,1.223 C11.474,1.223 12.378,1.598 13.058,2.277 L24.815,14.035 C26.218,15.437 26.218,17.721 24.815,19.124 L21.757,22.181 ZM52.119,52.542 C52.120,52.543 55.176,49.485 55.176,49.485 L43.419,37.728 L40.362,40.786 L52.119,52.542 ZM5.903,12.066 L5.902,12.066 C3.313,14.655 2.885,19.232 4.698,24.952 C6.639,31.076 10.876,37.616 16.629,43.369 C22.382,49.123 28.922,53.359 35.046,55.299 C40.766,57.112 45.343,56.684 47.932,54.096 C47.932,54.096 47.932,54.095 47.933,54.095 L48.258,53.771 L39.134,44.647 L38.298,45.483 C38.298,45.483 38.297,45.483 38.297,45.484 C37.424,46.357 36.276,46.746 34.954,46.746 C31.021,46.746 25.541,43.300 21.119,38.879 C15.211,32.971 11.046,25.175 14.513,21.704 C14.513,21.703 14.514,21.702 14.514,21.702 L15.351,20.865 L6.227,11.741 L5.903,12.066 ZM10.513,4.822 L7.456,7.880 L13.334,13.758 L19.169,19.592 L19.213,19.636 C19.214,19.637 19.214,19.638 19.214,19.638 L22.270,16.579 L10.513,4.822 Z"/>
</svg>