<svg 
 xmlns="http://www.w3.org/2000/svg"
 xmlns:xlink="http://www.w3.org/1999/xlink"
 width="180px" height="179px">
<path fill-rule="evenodd"  opacity="0.051" fill="currentColor"
 d="M178.899,3.528 C178.854,3.475 178.832,3.420 178.809,3.392 C178.765,3.317 178.697,3.272 178.675,3.214 C177.378,1.445 175.321,0.288 172.962,0.288 L172.951,0.288 L53.004,0.288 L52.990,0.288 C49.083,0.288 45.932,3.437 45.932,7.313 L45.932,7.318 L45.932,13.440 L45.932,36.439 L45.932,49.378 L45.932,72.382 L45.932,85.303 L45.932,108.296 L45.932,121.232 L45.932,144.236 L45.932,150.354 L45.932,150.354 C45.932,151.760 46.357,153.071 47.073,154.171 C47.106,154.204 47.117,154.249 47.140,154.287 C47.199,154.354 47.254,154.404 47.285,154.460 C48.571,156.233 50.639,157.389 52.990,157.389 L53.004,157.389 L61.783,157.389 C60.307,166.918 52.082,174.258 42.086,174.258 C31.987,174.258 23.700,166.762 22.367,157.072 L31.221,157.072 L31.221,157.072 C35.132,157.072 38.285,153.927 38.285,150.054 L38.285,150.048 L38.285,143.930 L38.285,120.926 L38.285,107.996 L38.285,85.006 L38.285,72.073 L38.285,49.064 L38.285,36.131 L38.285,13.138 L38.285,7.009 L38.285,6.998 C38.285,5.609 37.874,4.301 37.159,3.219 C37.128,3.181 37.100,3.117 37.066,3.083 C37.033,3.017 36.985,2.964 36.935,2.914 C35.646,1.150 33.575,-0.011 31.216,-0.011 L31.216,-0.011 L7.052,-0.011 L7.041,-0.011 C3.136,-0.011 -0.011,3.133 -0.011,6.998 L-0.011,7.009 L-0.011,13.133 L-0.011,36.126 L-0.011,49.058 L-0.011,72.063 L-0.011,84.995 L-0.011,107.985 L-0.011,120.915 L-0.011,143.920 L-0.011,150.042 L-0.011,150.048 C-0.011,151.454 0.400,152.760 1.115,153.855 C1.151,153.888 1.174,153.938 1.196,153.971 C1.241,154.044 1.294,154.094 1.328,154.149 C2.627,155.922 4.682,157.072 7.041,157.072 L7.052,157.072 L17.573,157.072 C18.942,169.374 29.349,179.009 42.080,179.009 C54.714,179.009 65.059,169.524 66.563,157.377 L172.945,157.377 L172.956,157.377 C176.864,157.377 180.011,154.227 180.011,150.360 L180.011,150.349 L180.011,144.225 L180.011,121.221 L180.011,108.296 L180.011,85.303 L180.011,72.376 L180.011,49.378 L180.011,36.445 L180.011,13.447 L180.011,7.323 L180.011,7.318 C180.028,5.912 179.603,4.609 178.899,3.528 ZM91.367,106.141 C91.367,107.796 90.017,109.130 88.351,109.130 L71.740,109.130 C70.074,109.130 68.726,107.796 68.726,106.141 L68.726,99.139 C68.726,97.495 70.074,96.150 71.740,96.150 L88.351,96.150 C90.017,96.150 91.367,97.495 91.367,99.139 L91.367,106.141 ZM91.367,82.339 C91.367,83.995 90.017,85.337 88.351,85.337 L71.740,85.337 C70.074,85.337 68.726,83.995 68.726,82.339 L68.726,75.346 C68.726,73.691 70.074,72.346 71.740,72.346 L88.351,72.346 C90.017,72.346 91.367,73.691 91.367,75.346 L91.367,82.339 ZM91.367,58.538 C91.367,60.183 90.017,61.530 88.351,61.530 L71.740,61.530 C70.074,61.530 68.726,60.183 68.726,58.538 L68.726,51.545 C68.726,49.889 70.074,48.548 71.740,48.548 L88.351,48.548 C90.017,48.548 91.367,49.889 91.367,51.545 L91.367,58.538 ZM124.305,106.141 C124.305,107.796 122.963,109.130 121.285,109.130 L104.677,109.130 C103.000,109.130 101.664,107.796 101.664,106.141 L101.664,99.139 C101.664,97.495 103.000,96.150 104.677,96.150 L121.285,96.150 C122.963,96.150 124.305,97.495 124.305,99.139 L124.305,106.141 ZM124.305,82.339 C124.305,83.995 122.963,85.337 121.285,85.337 L104.677,85.337 C103.000,85.337 101.664,83.995 101.664,82.339 L101.664,75.346 C101.664,73.691 103.000,72.346 104.677,72.346 L121.285,72.346 C122.963,72.346 124.305,73.691 124.305,75.346 L124.305,82.339 ZM124.305,58.538 C124.305,60.183 122.963,61.530 121.285,61.530 L104.677,61.530 C103.000,61.530 101.664,60.183 101.664,58.538 L101.664,51.545 C101.664,49.889 103.000,48.548 104.677,48.548 L121.285,48.548 C122.963,48.548 124.305,49.889 124.305,51.545 L124.305,58.538 ZM157.242,106.141 C157.242,107.796 155.890,109.130 154.212,109.130 L137.615,109.130 C135.938,109.130 134.591,107.796 134.591,106.141 L134.591,99.139 C134.591,97.495 135.938,96.150 137.615,96.150 L154.212,96.150 C155.890,96.150 157.242,97.495 157.242,99.139 L157.242,106.141 ZM157.242,82.339 C157.242,83.995 155.890,85.337 154.212,85.337 L137.615,85.337 C135.938,85.337 134.591,83.995 134.591,82.339 L134.591,75.346 C134.591,73.691 135.938,72.346 137.615,72.346 L154.212,72.346 C155.890,72.346 157.242,73.691 157.242,75.346 L157.242,82.339 ZM157.242,58.538 C157.242,60.183 155.890,61.530 154.212,61.530 L137.615,61.530 C135.938,61.530 134.591,60.183 134.591,58.538 L134.591,51.545 C134.591,49.889 135.938,48.548 137.615,48.548 L154.212,48.548 C155.890,48.548 157.242,49.889 157.242,51.545 L157.242,58.538 Z"/>
</svg>